<?xml version="1.0" standalone="no"?>
<!DOCTYPE svg PUBLIC "-//W3C//DTD SVG 20010904//EN"
 "http://www.w3.org/TR/2001/REC-SVG-20010904/DTD/svg10.dtd">
<svg version="1.0" xmlns="http://www.w3.org/2000/svg"
 width="245.000000pt" height="255.000000pt" viewBox="0 0 245.000000 255.000000"
 preserveAspectRatio="xMidYMid meet">

<g transform="translate(0.000000,255.000000) scale(0.100000,-0.100000)"
fill="#333" stroke="none">
<path d="M486 2534 c-21 -20 -24 -200 -3 -187 6 4 37 25 68 45 31 20 86 51
123 70 68 33 77 46 50 72 -12 13 -38 16 -119 16 -81 0 -107 -3 -119 -16z"/>
<path d="M1160 2540 c-500 -46 -931 -394 -1094 -885 -121 -364 -52 -794 181
-1117 74 -103 227 -250 334 -321 421 -279 968 -279 1388 0 106 71 245 203 322
305 57 77 131 203 144 246 l6 22 -168 0 -168 0 -35 -51 c-76 -112 -238 -254
-357 -313 -80 -39 -174 -71 -257 -85 -88 -16 -291 -13 -387 5 -278 52 -548
276 -668 551 -59 135 -66 179 -65 388 0 178 2 196 28 280 93 305 339 545 642
626 120 32 356 38 486 11 214 -44 404 -163 538 -337 l42 -55 174 0 c96 0 174
3 174 8 0 12 -78 141 -128 211 -106 150 -307 314 -484 395 -205 95 -431 136
-648 116z"/>
<path d="M1836 2534 c-28 -27 -18 -43 52 -78 38 -19 99 -55 135 -80 l67 -46 0
94 c0 125 -1 126 -135 126 -81 0 -107 -3 -119 -16z"/>
<path d="M870 1580 l0 -141 398 3 c360 3 400 5 425 21 85 56 82 165 -7 231
-26 20 -41 21 -422 24 l-394 3 0 -141z"/>
<path d="M870 980 l0 -141 398 3 c360 3 400 5 425 21 85 56 82 165 -7 231 -26
20 -41 21 -422 24 l-394 3 0 -141z"/>
<path d="M2033 181 c-29 -21 -89 -57 -133 -80 -81 -43 -92 -57 -64 -85 12 -13
38 -16 119 -16 134 0 135 1 135 126 0 52 -1 94 -2 94 -2 -1 -27 -18 -55 -39z"/>
<path d="M470 121 c0 -120 2 -121 135 -121 81 0 107 3 119 16 27 26 18 39 -50
72 -37 19 -92 50 -123 70 -31 20 -62 41 -68 45 -10 6 -13 -12 -13 -82z"/>
</g>
</svg>
